<svg width="207" height="21" viewBox="0 0 207 21" fill="none" xmlns="http://www.w3.org/2000/svg">
<path d="M190.884 20.2292V0.62915H193.124L194.104 4.32515V20.2292H190.884ZM204.464 20.2292L192.732 4.91315L193.124 0.62915L204.856 15.9452L204.464 20.2292ZM204.464 20.2292L203.484 16.7852V0.62915H206.704V20.2292H204.464Z" fill="white"/>
<path d="M178.943 20.5092C177.599 20.5092 176.329 20.2478 175.135 19.7252C173.94 19.2025 172.895 18.4839 171.999 17.5692C171.103 16.6358 170.393 15.5625 169.871 14.3492C169.367 13.1172 169.115 11.8012 169.115 10.4012C169.115 9.00118 169.367 7.69452 169.871 6.48118C170.393 5.26785 171.103 4.20385 171.999 3.28918C172.913 2.35585 173.977 1.63718 175.191 1.13318C176.423 0.610516 177.748 0.349182 179.167 0.349182C180.716 0.349182 182.153 0.647849 183.479 1.24518C184.804 1.84252 185.915 2.69185 186.811 3.79318L184.627 5.97718C184.048 5.15585 183.273 4.53052 182.303 4.10118C181.332 3.65318 180.287 3.42918 179.167 3.42918C177.823 3.42918 176.637 3.72785 175.611 4.32518C174.603 4.90385 173.819 5.71585 173.259 6.76118C172.699 7.80652 172.419 9.01985 172.419 10.4012C172.419 11.7825 172.699 13.0052 173.259 14.0692C173.837 15.1145 174.612 15.9359 175.583 16.5332C176.553 17.1305 177.655 17.4292 178.887 17.4292C180.193 17.4292 181.313 17.1959 182.247 16.7292C183.199 16.2438 183.927 15.5345 184.431 14.6012C184.935 13.6492 185.187 12.4825 185.187 11.1012L187.203 12.5572H178.831V9.61718H188.519V10.0652C188.519 12.3985 188.099 14.3398 187.259 15.8892C186.437 17.4385 185.308 18.5958 183.871 19.3612C182.433 20.1265 180.791 20.5092 178.943 20.5092Z" fill="white"/>
<path d="M163.47 20.2292V0.62915H166.69V20.2292H163.47Z" fill="white"/>
<path d="M154.211 20.5092C152.662 20.5092 151.346 20.2292 150.263 19.6692C149.181 19.1092 148.21 18.2879 147.351 17.2052L149.535 15.0212C150.077 15.8052 150.721 16.4212 151.467 16.8692C152.214 17.2985 153.166 17.5132 154.323 17.5132C155.406 17.5132 156.265 17.2892 156.899 16.8412C157.553 16.3932 157.879 15.7772 157.879 14.9932C157.879 14.3398 157.711 13.8078 157.375 13.3972C157.039 12.9865 156.591 12.6505 156.031 12.3892C155.49 12.1092 154.883 11.8665 154.211 11.6612C153.558 11.4372 152.895 11.1945 152.223 10.9332C151.57 10.6532 150.963 10.3078 150.403 9.89718C149.862 9.48652 149.423 8.95452 149.087 8.30118C148.751 7.64785 148.583 6.81718 148.583 5.80918C148.583 4.65185 148.863 3.67185 149.423 2.86918C150.002 2.04785 150.777 1.42252 151.747 0.993183C152.718 0.56385 153.801 0.349182 154.995 0.349182C156.283 0.349182 157.431 0.601182 158.439 1.10518C159.466 1.60918 160.297 2.25318 160.931 3.03718L158.747 5.22118C158.187 4.58652 157.599 4.11985 156.983 3.82118C156.386 3.50385 155.695 3.34518 154.911 3.34518C153.941 3.34518 153.175 3.54118 152.615 3.93318C152.074 4.32518 151.803 4.87585 151.803 5.58518C151.803 6.18252 151.971 6.66785 152.307 7.04118C152.643 7.39585 153.082 7.70385 153.623 7.96518C154.183 8.20785 154.79 8.44118 155.443 8.66518C156.115 8.88918 156.778 9.14118 157.431 9.42118C158.103 9.70118 158.71 10.0652 159.251 10.5132C159.811 10.9425 160.259 11.5025 160.595 12.1932C160.931 12.8839 161.099 13.7519 161.099 14.7972C161.099 16.5519 160.474 17.9425 159.223 18.9692C157.991 19.9959 156.321 20.5092 154.211 20.5092Z" fill="white"/>
<path d="M133.568 20.2292V0.62915H136.788V20.2292H133.568ZM135.78 20.2292V17.2892H146.756V20.2292H135.78ZM135.78 11.6332V8.80515H145.804V11.6332H135.78ZM135.78 3.56915V0.62915H146.616V3.56915H135.78Z" fill="white"/>
<path d="M115.893 20.2292V17.2892H121.045C122.389 17.2892 123.565 16.9998 124.573 16.4212C125.6 15.8425 126.393 15.0398 126.953 14.0132C127.532 12.9678 127.821 11.7638 127.821 10.4012C127.821 9.05715 127.532 7.87182 126.953 6.84515C126.375 5.81848 125.572 5.01582 124.545 4.43715C123.537 3.85849 122.371 3.56915 121.045 3.56915H115.893V0.62915H121.129C122.548 0.62915 123.864 0.881151 125.077 1.38515C126.291 1.87048 127.345 2.56115 128.241 3.45715C129.156 4.33448 129.865 5.37048 130.369 6.56515C130.873 7.74115 131.125 9.02915 131.125 10.4292C131.125 11.8105 130.873 13.0985 130.369 14.2932C129.865 15.4878 129.165 16.5332 128.269 17.4292C127.373 18.3065 126.319 18.9972 125.105 19.5012C123.892 19.9865 122.585 20.2292 121.185 20.2292H115.893ZM113.681 20.2292V0.62915H116.901V20.2292H113.681Z" fill="white"/>
<path d="M99.6572 20.5092C98.1079 20.5092 96.7919 20.2292 95.7092 19.6692C94.6266 19.1092 93.6559 18.2879 92.7972 17.2052L94.9812 15.0212C95.5226 15.8052 96.1666 16.4212 96.9132 16.8692C97.6599 17.2985 98.6119 17.5132 99.7692 17.5132C100.852 17.5132 101.711 17.2892 102.345 16.8412C102.999 16.3932 103.325 15.7772 103.325 14.9932C103.325 14.3398 103.157 13.8078 102.821 13.3972C102.485 12.9865 102.037 12.6505 101.477 12.3892C100.936 12.1092 100.329 11.8665 99.6572 11.6612C99.0039 11.4372 98.3412 11.1945 97.6692 10.9332C97.0159 10.6532 96.4092 10.3078 95.8492 9.89718C95.3079 9.48652 94.8692 8.95452 94.5332 8.30118C94.1972 7.64785 94.0292 6.81718 94.0292 5.80918C94.0292 4.65185 94.3092 3.67185 94.8692 2.86918C95.4479 2.04785 96.2226 1.42252 97.1932 0.993183C98.1639 0.56385 99.2466 0.349182 100.441 0.349182C101.729 0.349182 102.877 0.601182 103.885 1.10518C104.912 1.60918 105.743 2.25318 106.377 3.03718L104.193 5.22118C103.633 4.58652 103.045 4.11985 102.429 3.82118C101.832 3.50385 101.141 3.34518 100.357 3.34518C99.3866 3.34518 98.6212 3.54118 98.0612 3.93318C97.5199 4.32518 97.2492 4.87585 97.2492 5.58518C97.2492 6.18252 97.4172 6.66785 97.7532 7.04118C98.0892 7.39585 98.5279 7.70385 99.0692 7.96518C99.6292 8.20785 100.236 8.44118 100.889 8.66518C101.561 8.88918 102.224 9.14118 102.877 9.42118C103.549 9.70118 104.156 10.0652 104.697 10.5132C105.257 10.9425 105.705 11.5025 106.041 12.1932C106.377 12.8839 106.545 13.7519 106.545 14.7972C106.545 16.5519 105.92 17.9425 104.669 18.9692C103.437 19.9959 101.767 20.5092 99.6572 20.5092Z" fill="url(#paint0_linear_23004_84)"/>
<path d="M88.1289 7.48918L90.0329 3.93318L91.0689 3.65318C90.9569 3.87718 90.8262 4.06385 90.6769 4.21318C90.5276 4.36252 90.3502 4.43718 90.1449 4.43718C89.7156 4.43718 89.3142 4.25985 88.9409 3.90518C88.5862 3.53185 88.4089 3.06518 88.4089 2.50518C88.4089 1.90785 88.6142 1.40385 89.0249 0.993183C89.4356 0.56385 89.9302 0.349182 90.5089 0.349182C91.0689 0.349182 91.5542 0.56385 91.9649 0.993183C92.3942 1.40385 92.6089 1.90785 92.6089 2.50518C92.6089 2.74785 92.5529 3.03718 92.4409 3.37318C92.3476 3.69052 92.1702 4.10118 91.9089 4.60518L89.8369 8.41318L88.1289 7.48918Z" fill="url(#paint1_linear_23004_84)"/>
<path d="M73.2092 20.2292V0.62915H76.4292V20.2292H73.2092ZM75.4212 20.2292V17.2892H86.3972V20.2292H75.4212ZM75.4212 11.6332V8.80515H85.4452V11.6332H75.4212ZM75.4212 3.56915V0.62915H86.2572V3.56915H75.4212Z" fill="url(#paint2_linear_23004_84)"/>
<path d="M59.5816 12.8372V10.0372H64.4816C65.1536 10.0372 65.7416 9.90649 66.2456 9.64515C66.7683 9.36515 67.179 8.98249 67.4776 8.49715C67.7763 7.99315 67.9256 7.40515 67.9256 6.73315C67.9256 6.06115 67.7763 5.48249 67.4776 4.99715C67.179 4.49315 66.7683 4.11048 66.2456 3.84915C65.7416 3.56915 65.1536 3.42915 64.4816 3.42915H59.5816V0.62915H64.6496C65.8816 0.62915 66.983 0.881151 67.9536 1.38515C68.943 1.88915 69.7176 2.59849 70.2776 3.51315C70.8563 4.42782 71.1456 5.50115 71.1456 6.73315C71.1456 7.96515 70.8563 9.03849 70.2776 9.95315C69.7176 10.8678 68.943 11.5772 67.9536 12.0812C66.983 12.5852 65.8816 12.8372 64.6496 12.8372H59.5816ZM57.3696 20.2292V0.62915H60.5896V20.2292H57.3696Z" fill="url(#paint3_linear_23004_84)"/>
<path d="M37.3121 20.2292L45.3761 0.62915H47.6161L55.6241 20.2292H52.1521L45.8801 4.35315H47.0561L40.7281 20.2292H37.3121ZM41.2881 16.4492V13.6492H51.6761V16.4492H41.2881Z" fill="url(#paint4_linear_23004_84)"/>
<path d="M27.7296 20.5092C26.3856 20.5092 25.1163 20.2478 23.9216 19.7252C22.7269 19.2025 21.6816 18.4839 20.7856 17.5692C19.8896 16.6358 19.1803 15.5625 18.6576 14.3492C18.1536 13.1172 17.9016 11.8012 17.9016 10.4012C17.9016 9.00118 18.1536 7.69452 18.6576 6.48118C19.1803 5.26785 19.8896 4.20385 20.7856 3.28918C21.7003 2.35585 22.7643 1.63718 23.9776 1.13318C25.2096 0.610516 26.5349 0.349182 27.9536 0.349182C29.5029 0.349182 30.9403 0.647849 32.2656 1.24518C33.5909 1.84252 34.7016 2.69185 35.5976 3.79318L33.4136 5.97718C32.8349 5.15585 32.0603 4.53052 31.0896 4.10118C30.1189 3.65318 29.0736 3.42918 27.9536 3.42918C26.6096 3.42918 25.4243 3.72785 24.3976 4.32518C23.3896 4.90385 22.6056 5.71585 22.0456 6.76118C21.4856 7.80652 21.2056 9.01985 21.2056 10.4012C21.2056 11.7825 21.4856 13.0052 22.0456 14.0692C22.6243 15.1145 23.3989 15.9359 24.3696 16.5332C25.3403 17.1305 26.4416 17.4292 27.6736 17.4292C28.9803 17.4292 30.1003 17.1959 31.0336 16.7292C31.9856 16.2438 32.7136 15.5345 33.2176 14.6012C33.7216 13.6492 33.9736 12.4825 33.9736 11.1012L35.9896 12.5572H27.6176V9.61718H37.3056V10.0652C37.3056 12.3985 36.8856 14.3398 36.0456 15.8892C35.2243 17.4385 34.0949 18.5958 32.6576 19.3612C31.2203 20.1265 29.5776 20.5092 27.7296 20.5092Z" fill="url(#paint5_linear_23004_84)"/>
<path d="M0 20.2292L8.064 0.62915H10.304L18.312 20.2292H14.84L8.568 4.35315H9.744L3.416 20.2292H0ZM3.976 16.4492V13.6492H14.364V16.4492H3.976Z" fill="url(#paint6_linear_23004_84)"/>
<defs>
<linearGradient id="paint0_linear_23004_84" x1="92.7972" y1="10.4292" x2="106.545" y2="10.4292" gradientUnits="userSpaceOnUse">
<stop stop-color="#F5058F"/>
<stop offset="0.5" stop-color="#885DEE"/>
<stop offset="1" stop-color="#3F4EF3"/>
</linearGradient>
<linearGradient id="paint1_linear_23004_84" x1="88.1289" y1="4.38118" x2="92.6089" y2="4.38118" gradientUnits="userSpaceOnUse">
<stop stop-color="#F5058F"/>
<stop offset="0.5" stop-color="#885DEE"/>
<stop offset="1" stop-color="#3F4EF3"/>
</linearGradient>
<linearGradient id="paint2_linear_23004_84" x1="73.2092" y1="10.4292" x2="86.3972" y2="10.4292" gradientUnits="userSpaceOnUse">
<stop stop-color="#F5058F"/>
<stop offset="0.5" stop-color="#885DEE"/>
<stop offset="1" stop-color="#3F4EF3"/>
</linearGradient>
<linearGradient id="paint3_linear_23004_84" x1="57.3696" y1="10.4292" x2="71.1456" y2="10.4292" gradientUnits="userSpaceOnUse">
<stop stop-color="#F5058F"/>
<stop offset="0.5" stop-color="#885DEE"/>
<stop offset="1" stop-color="#3F4EF3"/>
</linearGradient>
<linearGradient id="paint4_linear_23004_84" x1="37.3121" y1="10.4292" x2="55.6241" y2="10.4292" gradientUnits="userSpaceOnUse">
<stop stop-color="#F5058F"/>
<stop offset="0.5" stop-color="#885DEE"/>
<stop offset="1" stop-color="#3F4EF3"/>
</linearGradient>
<linearGradient id="paint5_linear_23004_84" x1="17.9016" y1="10.4292" x2="37.3056" y2="10.4292" gradientUnits="userSpaceOnUse">
<stop stop-color="#F5058F"/>
<stop offset="0.5" stop-color="#885DEE"/>
<stop offset="1" stop-color="#3F4EF3"/>
</linearGradient>
<linearGradient id="paint6_linear_23004_84" x1="0" y1="10.4292" x2="18.312" y2="10.4292" gradientUnits="userSpaceOnUse">
<stop stop-color="#F5058F"/>
<stop offset="0.5" stop-color="#885DEE"/>
<stop offset="1" stop-color="#3F4EF3"/>
</linearGradient>
</defs>
</svg>
