<svg width="21" height="20" viewBox="0 0 21 20" fill="none" xmlns="http://www.w3.org/2000/svg">
<path d="M10.5 14C11.5609 14 12.5783 13.5786 13.3284 12.8284C14.0786 12.0783 14.5 11.0609 14.5 10C14.5 8.93913 14.0786 7.92172 13.3284 7.17157C12.5783 6.42143 11.5609 6 10.5 6C9.43913 6 8.42172 6.42143 7.67157 7.17157C6.92143 7.92172 6.5 8.93913 6.5 10C6.5 11.0609 6.92143 12.0783 7.67157 12.8284C8.42172 13.5786 9.43913 14 10.5 14V14Z" stroke="#F50591" stroke-width="1.5" stroke-linecap="round" stroke-linejoin="round"/>
<path d="M1.5 14V6C1.5 4.67392 2.02678 3.40215 2.96447 2.46447C3.90215 1.52678 5.17392 1 6.5 1H14.5C15.8261 1 17.0979 1.52678 18.0355 2.46447C18.9732 3.40215 19.5 4.67392 19.5 6V14C19.5 15.3261 18.9732 16.5979 18.0355 17.5355C17.0979 18.4732 15.8261 19 14.5 19H6.5C5.17392 19 3.90215 18.4732 2.96447 17.5355C2.02678 16.5979 1.5 15.3261 1.5 14Z" stroke="#F50591" stroke-width="1.5"/>
<path d="M16 4.51002L16.01 4.49902" stroke="#F50591" stroke-width="1.5" stroke-linecap="round" stroke-linejoin="round"/>
</svg>
